<?xml version="1.0" encoding="UTF-8"?>
<svg version="1.1" xmlns="http://www.w3.org/2000/svg" width="1024" height="1024">
<path d="M0 0 C337.92 0 675.84 0 1024 0 C1024 337.92 1024 675.84 1024 1024 C686.08 1024 348.16 1024 0 1024 C0 686.08 0 348.16 0 0 Z " fill="#151515" transform="translate(0,0)"/>
<path d="M0 0 C337.92 0 675.84 0 1024 0 C1024 78.87 1024 157.74 1024 239 C686.08 239 348.16 239 0 239 C0 160.13 0 81.26 0 0 Z " fill="#151515" transform="translate(0,785)"/>
<path d="M0 0 C129.69 0 259.38 0 393 0 C393 38.94 393 77.88 393 118 C380.46 118 367.92 118 355 118 C355 130.87 355 143.74 355 157 C470.83 157 586.66 157 706 157 C706 144.13 706 131.26 706 118 C693.46 118 680.92 118 668 118 C668 79.06 668 40.12 668 0 C785.48 0 902.96 0 1024 0 C1024 53.46 1024 106.92 1024 162 C686.08 162 348.16 162 0 162 C0 108.54 0 55.08 0 0 Z " fill="#FDFDFD" transform="translate(0,862)"/>
<path d="M0 0 C337.92 0 675.84 0 1024 0 C1024 27.06 1024 54.12 1024 82 C686.08 82 348.16 82 0 82 C0 54.94 0 27.88 0 0 Z " fill="#171716" transform="translate(0,0)"/>
<path d="M0 0 C337.92 0 675.84 0 1024 0 C1024 12.54 1024 25.08 1024 38 C686.08 38 348.16 38 0 38 C0 25.46 0 12.92 0 0 Z " fill="#A6AAAE" transform="translate(0,785)"/>
<path d="M0 0 C337.92 0 675.84 0 1024 0 C1024 12.54 1024 25.08 1024 38 C686.08 38 348.16 38 0 38 C0 25.46 0 12.92 0 0 Z " fill="#A8ACB0" transform="translate(0,44)"/>
<path d="M0 0 C64.68 0 129.36 0 196 0 C196 38.94 196 77.88 196 118 C131.32 118 66.64 118 0 118 C0 79.06 0 40.12 0 0 Z " fill="#A6AAAE" transform="translate(433,862)"/>
<path d="M0 0 C180.51 0 361.02 0 547 0 C547 12.87 547 25.74 547 39 C366.49 39 185.98 39 0 39 C0 26.13 0 13.26 0 0 Z " fill="#19D0E7" transform="translate(199,434)"/>
<path d="M0 0 C180.51 0 361.02 0 547 0 C547 12.87 547 25.74 547 39 C366.49 39 185.98 39 0 39 C0 26.13 0 13.26 0 0 Z " fill="#19D0E7" transform="translate(199,356)"/>
<path d="M0 0 C0 12.87 0 25.74 0 39 C-141.57 39 -283.14 39 -429 39 C-429 26.46 -429 13.92 -429 1 C-374.49235125 0.87259292 -319.98470247 0.74519674 -265.47705365 0.61781773 C-259.04923694 0.60279654 -252.62142023 0.58777526 -246.19360352 0.57275391 C-244.2740223 0.56826798 -244.2740223 0.56826798 -242.31566166 0.56369144 C-221.56525382 0.515199 -200.81484599 0.4666983 -180.06443817 0.41819459 C-158.7896899 0.36846543 -137.51494162 0.31874506 -116.24019331 0.26903296 C-103.10115145 0.23833105 -89.9621096 0.20762218 -76.82306778 0.17690456 C-67.82632211 0.15587182 -58.82957643 0.1348476 -49.83283073 0.11383021 C-44.63384774 0.10168456 -39.43486476 0.08953501 -34.23588181 0.07737541 C-29.48456033 0.0662629 -24.73323883 0.05516098 -19.98191731 0.0440678 C-18.25512762 0.04003424 -16.52833793 0.03599665 -14.80154825 0.03195482 C-12.47012634 0.02649832 -10.1387044 0.02105593 -7.80728245 0.01561737 C-6.50749976 0.01257961 -5.20771707 0.00954185 -3.86854702 0.00641203 C-1 0 -1 0 0 0 Z " fill="#19D2E8" transform="translate(707,200)"/>
<path d="M0 0 C77.55 0 155.1 0 235 0 C235 12.87 235 25.74 235 39 C157.45 39 79.9 39 0 39 C0 26.13 0 13.26 0 0 Z " fill="#18CFE4" transform="translate(316,278)"/>
<path d="M0 0 C64.68 0 129.36 0 196 0 C196 12.87 196 25.74 196 39 C131.32 39 66.64 39 0 39 C0 26.13 0 13.26 0 0 Z " fill="#787C7F" transform="translate(433,862)"/>
<path d="M0 0 C337.92 0 675.84 0 1024 0 C1024 1.65 1024 3.3 1024 5 C686.08 5 348.16 5 0 5 C0 3.35 0 1.7 0 0 Z " fill="#F9F9F8" transform="translate(0,0)"/>
<path d="M0 0 C38.94 0 77.88 0 118 0 C118 12.87 118 25.74 118 39 C79.06 39 40.12 39 0 39 C0 26.13 0 13.26 0 0 Z " fill="#1BD0E7" transform="translate(121,590)"/>
<path d="M0 0 C38.94 0 77.88 0 118 0 C118 12.87 118 25.74 118 39 C79.06 39 40.12 39 0 39 C0 26.13 0 13.26 0 0 Z " fill="#19D1E7" transform="translate(160,512)"/>
<path d="M0 0 C38.94 0 77.88 0 118 0 C118 12.87 118 25.74 118 39 C79.06 39 40.12 39 0 39 C0 26.13 0 13.26 0 0 Z " fill="#18CFE5" transform="translate(160,278)"/>
<path d="M0 0 C38.94 0 77.88 0 118 0 C118 12.54 118 25.08 118 38 C79.06 38 40.12 38 0 38 C0 25.46 0 12.92 0 0 Z " fill="#18D2E8" transform="translate(121,201)"/>
<path d="M0 0 C180.51 0 361.02 0 547 0 C547 12.87 547 25.74 547 39 C366.49 39 185.98 39 0 39 C0 26.13 0 13.26 0 0 Z M2 2 C2 13.55 2 25.1 2 37 C181.19 37 360.38 37 545 37 C545 25.45 545 13.9 545 2 C365.81 2 186.62 2 2 2 Z " fill="#1DD1DA" transform="translate(199,434)"/>
<path d="M0 0 C180.51 0 361.02 0 547 0 C547 12.87 547 25.74 547 39 C366.49 39 185.98 39 0 39 C0 26.13 0 13.26 0 0 Z M2 2 C2 13.55 2 25.1 2 37 C181.19 37 360.38 37 545 37 C545 25.45 545 13.9 545 2 C365.81 2 186.62 2 2 2 Z " fill="#17CCD7" transform="translate(199,356)"/>
<path d="M0 0 C12.87 0 25.74 0 39 0 C39 0.33 39 0.66 39 1 C26.79 1 14.58 1 2 1 C2 12.55 2 24.1 2 36 C116.84 36 231.68 36 350 36 C350 24.45 350 12.9 350 1 C337.79 1 325.58 1 313 1 C313 0.67 313 0.34 313 0 C325.54 0 338.08 0 351 0 C351 12.54 351 25.08 351 38 C235.17 38 119.34 38 0 38 C0 25.46 0 12.92 0 0 Z " fill="#333334" transform="translate(355,981)"/>
<path d="M0 0 C38.94 0 77.88 0 118 0 C118 12.87 118 25.74 118 39 C79.06 39 40.12 39 0 39 C0 26.13 0 13.26 0 0 Z M2 2 C-3.36863318 12.73726636 1 25.99537126 1 38 C39.28 38 77.56 38 117 38 C117 26.12 117 14.24 117 2 C79.05 2 41.1 2 2 2 Z " fill="#21EAF8" transform="translate(121,590)"/>
<path d="M0 0 C38.94 0 77.88 0 118 0 C118 12.87 118 25.74 118 39 C117.67 39 117.34 39 117 39 C116.67 26.79 116.34 14.58 116 2 C78.38 2 40.76 2 2 2 C2 13.88 2 25.76 2 38 C1.34 38 0.68 38 0 38 C0 25.46 0 12.92 0 0 Z " fill="#21CEE1" transform="translate(160,512)"/>
<path d="M0 0 C0.66 0 1.32 0 2 0 C2.02505615 0.98919434 2.0501123 1.97838867 2.07592773 2.99755859 C2.16997787 6.66159404 2.27020429 10.32543885 2.37231445 13.98925781 C2.41567241 15.57612657 2.45734687 17.16304224 2.49731445 18.75 C2.55499632 21.02878979 2.61869638 23.30734322 2.68359375 25.5859375 C2.70030624 26.29744965 2.71701874 27.00896179 2.73423767 27.74203491 C2.79721937 31.49660817 2.79721937 31.49660817 4 35 C2.68 35 1.36 35 0 35 C0 23.45 0 11.9 0 0 Z " fill="#20DBF5" transform="translate(160,280)"/>
</svg>
